<?xml version="1.0" encoding="iso-8859-1"?>
<!-- Generator: Adobe Illustrator 16.0.0, SVG Export Plug-In . SVG Version: 6.00 Build 0)  -->
<!DOCTYPE svg PUBLIC "-//W3C//DTD SVG 1.1//EN" "http://www.w3.org/Graphics/SVG/1.1/DTD/svg11.dtd">
<svg version="1.1" id="Capa_1" xmlns="http://www.w3.org/2000/svg" xmlns:xlink="http://www.w3.org/1999/xlink" x="0px" y="0px"
	 width="74.555px" height="74.555px" viewBox="0 0 74.555 74.555" style="enable-background:new 0 0 74.555 74.555;"
	 xml:space="preserve">
<g>
	<g>
		<g>
			<path d="M64.728,32.665c-2.112-2.28-2.719-5.36-6.1-5.36c-3.547,0-4.188,3.156-6.31,5.604c-1.692,1.955-5.251,2.574-5.251,6.004
				c0,4.478,5.178,7.099,11.561,7.099c6.385,0,11.561-2.621,11.561-7.099C70.188,35.155,66.607,34.695,64.728,32.665z"/>
			<path d="M50.105,28.542c0-2.249-7.085-10.093-7.085-10.093s-1.071,7.844-1.071,10.093c0,2.252,1.827,4.081,4.08,4.081
				C48.278,32.623,50.105,30.794,50.105,28.542z"/>
			<path d="M73.487,18.447c0,0-7.088,7.843-7.088,10.093c0,2.252,1.827,4.081,4.079,4.081c2.249,0,4.076-1.828,4.076-4.081
				C74.555,26.293,73.487,18.447,73.487,18.447z"/>
			<path d="M53.172,24.025c2.249,0,4.074-1.829,4.074-4.081c0-2.25-4.074-10.091-4.074-10.091s-4.083,7.842-4.083,10.091
				C49.089,22.196,50.916,24.025,53.172,24.025z"/>
			<path d="M63.318,24.025c2.249,0,4.073-1.829,4.073-4.081c0-2.25-4.073-10.091-4.073-10.091s-4.079,7.842-4.079,10.091
				C59.239,22.196,61.068,24.025,63.318,24.025z"/>
		</g>
		<path d="M22.237,51.597c-2.121-2.45-2.763-5.603-6.309-5.603c-3.379,0-3.985,3.08-6.099,5.361
			c-1.881,2.025-5.461,2.486-5.461,6.247c0,4.478,5.176,7.099,11.56,7.099c6.383,0,11.56-2.621,11.56-7.099
			C27.488,54.17,23.928,53.552,22.237,51.597z"/>
		<path d="M24.448,47.229c0,2.252,1.827,4.081,4.077,4.081c2.253,0,4.081-1.829,4.081-4.081c0-2.249-1.072-10.093-1.072-10.093
			S24.448,44.979,24.448,47.229z"/>
		<path d="M8.155,47.229c0-2.249-7.087-10.093-7.087-10.093S0,44.979,0,47.229c0,2.252,1.827,4.081,4.076,4.081
			C6.328,51.31,8.155,49.48,8.155,47.229z"/>
		<path d="M21.384,42.712c2.255,0,4.081-1.829,4.081-4.081c0-2.249-4.081-10.091-4.081-10.091s-4.075,7.842-4.075,10.091
			C17.309,40.883,19.135,42.712,21.384,42.712z"/>
		<path d="M11.238,42.712c2.251,0,4.079-1.829,4.079-4.081c0-2.249-4.079-10.091-4.079-10.091s-4.076,7.842-4.076,10.091
			C7.159,40.883,8.989,42.712,11.238,42.712z"/>
	</g>
</g>
<g>
</g>
<g>
</g>
<g>
</g>
<g>
</g>
<g>
</g>
<g>
</g>
<g>
</g>
<g>
</g>
<g>
</g>
<g>
</g>
<g>
</g>
<g>
</g>
<g>
</g>
<g>
</g>
<g>
</g>
</svg>
